<?xml version="1.0" standalone="no"?>
<!DOCTYPE svg PUBLIC "-//W3C//DTD SVG 20010904//EN"
 "http://www.w3.org/TR/2001/REC-SVG-20010904/DTD/svg10.dtd">
<svg version="1.0" xmlns="http://www.w3.org/2000/svg"
 width="256.000000pt" height="256.000000pt" viewBox="0 0 256.000000 256.000000"
 preserveAspectRatio="xMidYMid meet">
<metadata>
Created by potrace 1.14, written by Peter Selinger 2001-2017
</metadata>
<g transform="translate(0.000000,256.000000) scale(0.100000,-0.100000)"
fill="#000000" stroke="none">
<path d="M1157 2483 c-1 0 -26 -4 -56 -8 -74 -9 -77 -10 -150 -35 -412 -139
-638 -573 -514 -990 30 -103 103 -228 181 -311 156 -166 342 -250 566 -254
l109 -2 43 -74 c52 -90 81 -107 134 -78 76 39 73 39 96 0 290 -506 381 -661
402 -684 50 -54 145 -60 207 -13 76 58 82 141 17 253 -22 37 -49 84 -60 103
-10 19 -61 107 -112 195 -51 88 -104 180 -118 204 -14 25 -37 66 -53 92 l-27
47 50 34 c80 52 80 62 -8 214 -17 30 -17 31 12 75 168 249 167 602 -2 866
-122 191 -345 331 -570 358 -49 6 -144 11 -147 8z m163 -173 c230 -40 438
-230 499 -458 91 -338 -94 -672 -434 -783 -57 -19 -91 -23 -185 -23 -101 1
-125 4 -200 30 -158 56 -287 165 -361 307 -60 115 -73 172 -73 307 1 111 19
183 72 290 83 167 278 307 466 335 22 3 41 7 42 8 5 5 114 -3 174 -13z"/>
</g>
</svg>
